<svg xmlns="http://www.w3.org/2000/svg" xmlns:xlink="http://www.w3.org/1999/xlink" width="1584" zoomAndPan="magnify" viewBox="0 0 1188 296.999993" height="396" preserveAspectRatio="xMidYMid meet" version="1.0"><defs><g/></defs><path fill="#7cffa5" d="M 92.449219 197.363281 C 30.503906 233.070312 40.691406 238.933594 40.691406 167.523438 C 40.691406 96.007812 30.503906 101.875 92.449219 137.582031 C 154.289062 173.386719 154.289062 161.65625 92.449219 197.363281 Z M 92.449219 197.363281 " fill-opacity="1" fill-rule="evenodd"/><path fill="#3bd76d" d="M 152.230469 197.363281 C 90.285156 233.070312 100.472656 238.933594 100.472656 167.523438 C 100.472656 96.007812 90.285156 101.875 152.230469 137.582031 C 214.074219 173.386719 214.074219 161.65625 152.230469 197.363281 Z M 152.230469 197.363281 " fill-opacity="1" fill-rule="evenodd"/><path fill="#0f9e3c" d="M 212.015625 197.363281 C 150.070312 233.070312 160.257812 238.933594 160.257812 167.523438 C 160.257812 96.007812 150.070312 101.875 212.015625 137.582031 C 273.855469 173.386719 273.855469 161.65625 212.015625 197.363281 Z M 212.015625 197.363281 " fill-opacity="1" fill-rule="evenodd"/><g fill="#0f9e3c" fill-opacity="1"><g transform="translate(235.478919, 260.1182)"><g><path d="M 3 0 L 44.890625 0 L 59.359375 -43.125 L 133.875 -43.125 L 148.328125 0 L 193.359375 0 L 121.046875 -201.96875 L 75.328125 -201.96875 Z M 71.234375 -78.59375 L 96.609375 -154.609375 L 122.125 -78.59375 Z M 71.234375 -78.59375 "/></g></g></g><g fill="#0f9e3c" fill-opacity="1"><g transform="translate(431.841835, 260.1182)"><g><path d="M 20.46875 0 L 63.046875 0 L 63.046875 -201.96875 L 20.46875 -201.96875 Z M 20.46875 0 "/></g></g></g><g fill="#535353" fill-opacity="1"><g transform="translate(492.993726, 242.061566)"><g><path d="M 72.921875 2.75 C 108.296875 2.75 128.9375 -15.140625 128.9375 -43.4375 C 128.9375 -77.4375 99.25 -84.125 74.296875 -89.625 C 56.015625 -93.75 39.90625 -97.296875 39.90625 -111.046875 C 39.90625 -122.453125 50.125 -128.546875 64.265625 -128.546875 C 79.59375 -128.546875 92.375 -121.265625 96.109375 -105.34375 L 125 -105.34375 C 120.28125 -137.78125 93.75 -152.71875 64.859375 -152.71875 C 34.59375 -152.71875 11.796875 -137.578125 11.796875 -108.6875 C 11.796875 -77.046875 39.703125 -70.953125 64.265625 -65.453125 C 83.328125 -61.328125 100.4375 -57.59375 100.4375 -42.0625 C 100.4375 -27.71875 88.640625 -21.421875 73.109375 -21.421875 C 57.390625 -21.421875 41.078125 -27.3125 36.171875 -48.75 L 6.875 -48.75 C 10.609375 -10.03125 44.03125 2.75 72.921875 2.75 Z M 72.921875 2.75 "/></g></g></g><g fill="#535353" fill-opacity="1"><g transform="translate(629.783361, 242.061566)"><g><path d="M 80.390625 2.75 C 130.109375 2.75 153.3125 -33.609375 153.3125 -75.078125 C 153.3125 -116.546875 130.109375 -152.71875 80.390625 -152.71875 C 30.859375 -152.71875 7.671875 -116.546875 7.671875 -75.078125 C 7.671875 -33.609375 30.859375 2.75 80.390625 2.75 Z M 80.390625 -22.609375 C 53.0625 -22.609375 37.140625 -43.828125 37.140625 -75.078125 C 37.140625 -106.140625 53.0625 -127.171875 80.390625 -127.171875 C 108.09375 -127.171875 123.828125 -106.140625 123.828125 -75.078125 C 123.828125 -43.828125 108.09375 -22.609375 80.390625 -22.609375 Z M 80.390625 -22.609375 "/></g></g></g><g fill="#535353" fill-opacity="1"><g transform="translate(790.94358, 242.061566)"><g><path d="M 105.15625 0 L 105.15625 -25.359375 L 41.671875 -25.359375 L 41.671875 -149.96875 L 13.359375 -149.96875 L 13.359375 0 Z M 105.15625 0 "/></g></g></g><g fill="#535353" fill-opacity="1"><g transform="translate(898.252669, 242.061566)"><g><path d="M 84.515625 0 L 137.390625 -149.96875 L 107.703125 -149.96875 L 68.984375 -31.046875 L 30.265625 -149.96875 L 0.59375 -149.96875 L 53.453125 0 Z M 84.515625 0 "/></g></g></g><g fill="#535353" fill-opacity="1"><g transform="translate(1036.221544, 242.061566)"><g><path d="M 113.40625 0 L 113.40625 -25.359375 L 41.671875 -25.359375 L 41.671875 -62.5 L 105.9375 -62.5 L 105.9375 -87.65625 L 41.671875 -87.65625 L 41.671875 -124.609375 L 113.40625 -124.609375 L 113.40625 -149.96875 L 13.359375 -149.96875 L 13.359375 0 Z M 113.40625 0 "/></g></g></g></svg>